# xmcd
#
# Track frame offsets:
#	222
#	10027
#	21807
#	33202
#	42730
#	52932
#	64555
#	76705
#	85642
#	96125
#	109155
#	122085
#	136857
#	148185
#	161760
#	176227
#	189125
#	202042
#	213362
#	225002
#	241300
#	255122
#	269007
#	280625
#
# Disc length: 3953 seconds
# Revision: 0
# Processed by: cddbd v1.5.2PL0 Copyright (c) Steve Scherf et al.
# Submitted via: dBpowerAMP V12.0
#
DISCID=360f6f18
DTITLE=Various Artist - The Hi Records Story
DYEAR=1959
DGENRE=R&B
TTITLE0=Bill Black's Combo - Smokie, Pt. II
TTITLE1=Bill Black's Combo - White Silver Sands
TTITLE2=Ace Cannon - Tuff
TTITLE3=Murray Kellum - Long Tall Texan
TTITLE4=Willie Mitchell - 20-75
TTITLE5=Jumpin' Gene Simmons - Haunted House
TTITLE6=Charlie Rich - Love Is After Me
TTITLE7=Jerry Jaye - My Girl Josephine
TTITLE8=Willie Mitchell - Soul Serenade
TTITLE9=Ann Peebles - Part Time Love
TTITLE10=Al Green - Tired of Being Alone
TTITLE11=Al Green - Let's Stay Together
TTITLE12=Ann Peebles - (I Feel Like) Breaking Up Somebody's Home
TTITLE13=George Jackson - Aretha, Sing One for Me
TTITLE14=Al Green - I'm Still in Love with You
TTITLE15=Otis Clay - Trying to Live My Life Without You
TTITLE16=Quiet Elegance - You've Got My Mind Messed Up
TTITLE17=Ann Peebles - I Can't Stand the Rain
TTITLE18=Syl Johnson - Back for a Taste of Your Love
TTITLE19=Phillip Mitchell - Turning Over the Ground
TTITLE20=Otis Clay - It Was Jealousy
TTITLE21=Syl Johnson - Take Me to the River
TTITLE22=Jean Plum - Look at the Boy
TTITLE23=O.V. Wright - Precious, Precious
EXTD=
EXTT0=
EXTT1=
EXTT2=
EXTT3=
EXTT4=
EXTT5=
EXTT6=
EXTT7=
EXTT8=
EXTT9=
EXTT10=
EXTT11=
EXTT12=
EXTT13=
EXTT14=
EXTT15=
EXTT16=
EXTT17=
EXTT18=
EXTT19=
EXTT20=
EXTT21=
EXTT22=
EXTT23=
PLAYORDER=
